HIERARCHY
ROOT Hips
{
	OFFSET 0.00000 0.00000 0.00000
	CHANNELS 6 Xposition Yposition Zposition Zrotation Yrotation Xrotation 
	JOINT LHipJoint
	{
		OFFSET 0 0 0
		CHANNELS 3 Zrotation Yrotation Xrotation
		JOINT LeftHip
		{
			OFFSET 1.53139 -1.83434 0.76626
			CHANNELS 3 Zrotation Yrotation Xrotation
			JOINT LeftKnee
			{
				OFFSET 2.56112 -7.03663 0.00000
				CHANNELS 3 Zrotation Yrotation Xrotation
				JOINT LeftAnkle
				{
					OFFSET 2.59983 -7.14299 0.00000
					CHANNELS 3 Zrotation Yrotation Xrotation
					JOINT LeftToe
					{
						OFFSET 0.13742 -0.37757 2.00054
						CHANNELS 3 Zrotation Yrotation Xrotation
						End Site
						{
							OFFSET 0.00000 -0.00000 1.02897
						}
					}
				}
			}
		}
	}
	JOINT RHipJoint
	{
		OFFSET 0 0 0
		CHANNELS 3 Zrotation Yrotation Xrotation
		JOINT RightHip
		{
			OFFSET -1.40122 -1.83435 0.76627
			CHANNELS 3 Zrotation Yrotation Xrotation
			JOINT RightKnee
			{
				OFFSET -2.54052 -6.98003 0.00000
				CHANNELS 3 Zrotation Yrotation Xrotation
				JOINT RightAnkle
				{
					OFFSET -2.63179 -7.23079 0.00000
					CHANNELS 3 Zrotation Yrotation Xrotation
					JOINT RightToe
					{
						OFFSET -0.24131 -0.66299 2.03908
						CHANNELS 3 Zrotation Yrotation Xrotation
						End Site
						{
							OFFSET -0.00000 -0.00000 1.07391
						}
					}
				}
			}
		}
	}
	JOINT lowerback
	{
		OFFSET 0 0 0
		CHANNELS 3 Zrotation Yrotation Xrotation
		JOINT Chest
		{
			OFFSET 0.01174 2.10302 -0.29778
			CHANNELS 3 Zrotation Yrotation Xrotation
			JOINT Chest2
			{
				OFFSET 0.00772 2.13227 -0.01247
				CHANNELS 3 Zrotation Yrotation Xrotation
				JOINT lowerneck
				{
					OFFSET 0 0 0
					CHANNELS 3 Zrotation Yrotation Xrotation
					JOINT Neck
					{
						OFFSET -0.09219 1.60848 0.31481
						CHANNELS 3 Zrotation Yrotation Xrotation
						JOINT Head
						{
							OFFSET 0.13974 1.65456 -0.31134
							CHANNELS 3 Zrotation Yrotation Xrotation
							End Site
							{
								OFFSET 0.04742 1.69515 -0.14578
							}
						}
					}
				}
				JOINT LeftCollar
				{
					OFFSET 0 0 0
					CHANNELS 3 Zrotation Yrotation Xrotation
					JOINT LeftShoulder
					{
						OFFSET 3.24909 1.02882 -0.23993
CHANNELS 3 Zrotation Xrotation Yrotation
						JOINT LeftElbow
						{
OFFSET 0 -5.329550 -0.000000
CHANNELS 3 Zrotation Xrotation Yrotation
							JOINT LeftWrist
							{
OFFSET 0 -3.692320 -0.000000
CHANNELS 3 Zrotation Xrotation Yrotation
								JOINT lhand
								{
									OFFSET 0 0 0
CHANNELS 3 Zrotation Xrotation Yrotation
									JOINT LFingers
									{
OFFSET 0 -0.536600 -0.000000
CHANNELS 3 Zrotation Xrotation Yrotation
										End Site
										{
OFFSET 0 -0.432620 -0.000000
										}
									}
								}
								JOINT LThumb
								{
OFFSET 0 0.000000 0.000000
CHANNELS 3 Zrotation Xrotation Yrotation
									End Site
									{
OFFSET 0 -0.439220 0.439220
									}
								}
							}
						}
					}
				}
				JOINT RightCollar
				{
					OFFSET 0 0 0
					CHANNELS 3 Zrotation Yrotation Xrotation
					JOINT RightShoulder
					{
						OFFSET -3.21387 0.93002 -0.34594
CHANNELS 3 Zrotation Xrotation Yrotation
						JOINT RightElbow
						{
OFFSET 0 -5.234310 0.000000
CHANNELS 3 Zrotation Xrotation Yrotation
							JOINT RightWrist
							{
OFFSET 0 -3.553010 -0.000000
CHANNELS 3 Zrotation Xrotation Yrotation
								JOINT rhand
								{
									OFFSET 0 0 0
CHANNELS 3 Zrotation Xrotation Yrotation
									JOINT RFingers
									{
OFFSET 0 -0.772520 -0.000000
CHANNELS 3 Zrotation Xrotation Yrotation
										End Site
										{
OFFSET 0 -0.622830 -0.000000
										}
									}
								}
								JOINT RThumb
								{
OFFSET 0 0.000000 0.000000
CHANNELS 3 Zrotation Xrotation Yrotation
									End Site
									{
OFFSET 0 -0.632340 0.632340
									}
								}
							}
						}
					}
				}
			}
		}
	}
}
MOTION
Frames: 6
Frame Time: 0.008333333333333333
-7.763900 17.739100 -14.424300 26.541200 -82.632500 -28.976700 0.000000 0.000000 0.000000 -2.177100 -15.325300 -0.143800 0.727100 5.448300 15.191700 0.124200 6.995000 7.444600 0.180600 -2.737500 -7.548800 0.000000 0.000000 0.000000 14.838100 2.143800 1.291600 -2.002600 -8.871400 25.393900 -1.096800 -0.332500 -19.923200 -0.752200 5.539400 -15.453600 0.706600 1.969100 12.572100 -0.468800 2.607200 1.986900 -1.316700 1.238900 -4.901300 -9.786900 2.294600 -15.844400 4.073100 3.841600 41.218900 4.205100 0.079200 17.585400 -0.000000 -0.000000 0.000000 2.156600 5.104700 -0.366500 14.557600 -23.526200 3.047200 23.803000 19.590000 -22.808100 0.000000 0.000000 0.000000 -7.125000 0.000000 0.000000 -5.568700 54.578500 1.313500 -0.000000 -0.000000 0.000000 -6.041800 1.002000 8.561600 -17.664600 -27.725600 -4.392100 -17.617900 1.023600 -8.677700 0.000000 0.000000 0.000000 7.125000 0.000000 -0.000000 6.680000 20.909000 3.882200
-7.779172 17.729067 -14.320495 28.317670 -82.657845 -30.700671 0.000000 0.000000 0.000000 -2.141903 -15.191502 0.585616 0.603515 4.970040 13.823759 0.187714 6.621827 8.391353 0.202217 -2.894669 -7.985711 0.000000 0.000000 0.000000 14.295143 2.489015 1.382451 -2.026036 -8.920105 25.545860 -1.097977 -0.402976 -19.959191 -0.704511 5.363524 -14.948550 0.495843 1.942750 12.525855 -0.460396 2.545516 1.953619 -1.178509 1.212326 -4.922054 -10.016002 2.315868 -15.874899 4.069515 3.963794 41.180897 4.263556 0.094227 17.554433 0.000000 0.000000 0.000000 2.058184 5.110484 -0.262292 14.368272 -23.258626 2.972035 21.920328 18.563102 -23.452552 0.000000 0.000000 0.000000 -7.125000 0.000000 0.000000 -7.766474 54.874613 1.892112 0.000000 0.000000 0.000000 -6.302210 0.998172 8.747446 -17.614916 -27.661306 -4.369007 -17.842304 1.069138 -8.668484 0.000000 0.000000 0.000000 7.125000 0.000000 0.000000 6.518526 20.906184 3.787471
-7.796339 17.732794 -14.220170 28.724876 -82.655277 -31.043160 0.000000 0.000000 0.000000 -2.007790 -15.008501 1.278486 0.487978 4.474878 12.417401 0.259140 6.412862 9.463446 0.235481 -3.121165 -8.616448 0.000000 0.000000 0.000000 13.964007 2.729035 1.361064 -2.058298 -8.986513 25.753076 -1.154570 -0.547301 -20.516189 -0.905945 6.034218 -16.893318 0.403459 1.966187 12.448303 -0.473864 2.564578 1.928061 -1.141393 1.223747 -4.909114 -10.052220 2.260943 -15.918550 4.156146 3.866873 41.126149 4.292667 0.066672 17.540195 0.000000 0.000000 0.000000 2.128012 4.963636 -0.159488 14.121445 -22.907901 2.875315 22.343363 19.081627 -23.379967 0.000000 0.000000 0.000000 -7.125000 0.000000 0.000000 -7.299147 54.883478 1.780475 0.000000 0.000000 0.000000 -6.366030 1.027897 8.693856 -17.586445 -27.624375 -4.355788 -17.790033 1.144471 -8.667392 0.000000 0.000000 0.000000 7.125000 0.000000 0.000000 6.556199 20.910235 3.809183
-7.812648 17.729926 -14.114037 28.631942 -82.645688 -30.882769 0.000000 0.000000 0.000000 -1.850624 -14.656693 1.807362 0.399410 4.054721 11.231090 0.334484 5.903977 10.471286 0.263648 -3.303042 -9.123658 0.000000 0.000000 0.000000 13.693969 3.100962 1.488281 -2.073405 -9.017310 25.849378 -1.169256 -0.833139 -20.753808 -0.949378 6.170196 -17.290182 0.382706 1.938961 12.352414 -0.492893 2.525640 1.916218 -1.139904 1.205517 -4.869390 -10.004264 2.270533 -16.071632 4.232017 3.857465 41.174402 4.325959 0.077347 17.605667 0.000000 0.000000 0.000000 2.132157 4.895460 -0.037993 13.961506 -22.679618 2.813237 22.778290 19.667604 -23.254294 0.000000 0.000000 0.000000 -7.125000 0.000000 0.000000 -6.798134 54.840058 1.649426 0.000000 0.000000 0.000000 -6.397713 0.999639 8.582022 -17.556469 -27.585482 -4.341858 -17.774757 1.163851 -8.698763 0.000000 0.000000 0.000000 7.125000 0.000000 0.000000 6.566814 20.878455 3.820163
-7.828477 17.718009 -13.997953 29.272760 -82.596384 -31.469179 0.000000 0.000000 0.000000 -1.903561 -14.337801 2.333209 0.329551 3.686412 10.196370 0.404810 5.364082 11.374171 0.293302 -3.480999 -9.621057 0.000000 0.000000 0.000000 13.224364 3.406128 1.636405 -2.085770 -9.042391 25.928080 -1.123868 -1.013804 -20.423938 -0.736005 5.480557 -15.284602 0.344295 1.845779 12.256993 -0.538695 2.395135 1.917126 -1.141500 1.142205 -4.818024 -9.959945 2.357280 -16.163532 4.171369 4.019648 41.128729 4.318761 0.144974 17.588782 0.000000 0.000000 0.000000 2.051480 4.945028 0.104073 13.922974 -22.624478 2.798424 21.599196 19.424251 -23.593486 0.000000 0.000000 0.000000 -7.125000 0.000000 0.000000 -8.155702 54.955750 2.004582 0.000000 0.000000 0.000000 -6.402164 0.883116 8.458400 -17.485371 -27.493161 -4.309014 -17.936715 1.447946 -8.654863 0.000000 0.000000 0.000000 7.125000 0.000000 0.000000 6.450709 20.915099 3.746323
-7.839999 17.698343 -13.876597 29.856986 -82.523027 -32.025795 0.000000 0.000000 0.000000 -2.038465 -14.214584 2.614672 0.304175 3.545714 9.801982 0.452424 4.982134 11.980923 0.336078 -3.724737 -10.303453 0.000000 0.000000 0.000000 12.702463 3.599802 1.876436 -2.070841 -9.011982 25.832911 -1.127545 -0.948663 -20.430848 -0.719855 5.421809 -15.115631 0.299277 1.770497 12.242646 -0.554465 2.289077 1.904280 -1.115440 1.090646 -4.826843 -10.008333 2.425542 -16.203766 4.193254 4.143923 41.076443 4.357594 0.195586 17.552368 0.000000 0.000000 0.000000 1.926012 4.974629 0.284034 13.916458 -22.615207 2.795936 20.924716 19.416565 -23.601161 0.000000 0.000000 0.000000 -7.125000 0.000000 0.000000 -8.857633 54.829906 2.150964 0.000000 0.000000 0.000000 -6.535967 0.843875 8.435776 -17.413022 -27.399023 -4.275651 -17.985778 1.557076 -8.486602 0.000000 0.000000 0.000000 7.125000 0.000000 0.000000 6.417029 21.087696 3.701329
